<?xml version="1.0" encoding="UTF-8" standalone="no"?>
<!DOCTYPE svg PUBLIC "-//W3C//DTD SVG 1.1//EN"
 "http://www.w3.org/Graphics/SVG/1.1/DTD/svg11.dtd">
<!-- Generated by graphviz version 2.38.0 (20140413.2041)
 -->
<!-- Title: classes_pyautocrypt Pages: 1 -->
<svg width="2234pt" height="709pt"
 viewBox="0.00 0.00 2234.00 709.00" xmlns="http://www.w3.org/2000/svg" xmlns:xlink="http://www.w3.org/1999/xlink">
<g id="graph0" class="graph" transform="scale(1 1) rotate(0) translate(4 705)">
<title>classes_pyautocrypt</title>
<polygon fill="white" stroke="none" points="-4,4 -4,-705 2230,-705 2230,4 -4,4"/>
<!-- 0 -->
<g id="node1" class="node"><title>0</title>
<polygon fill="none" stroke="black" points="0,-391.5 0,-655.5 179,-655.5 179,-391.5 0,-391.5"/>
<text text-anchor="middle" x="89.5" y="-640.3" font-family="Times,serif" font-size="14.00">Account</text>
<polyline fill="none" stroke="black" points="0,-632.5 179,-632.5 "/>
<text text-anchor="start" x="8" y="-617.3" font-family="Times,serif" font-size="14.00">config</text>
<text text-anchor="start" x="8" y="-602.3" font-family="Times,serif" font-size="14.00">dir</text>
<polyline fill="none" stroke="black" points="0,-594.5 179,-594.5 "/>
<text text-anchor="start" x="8" y="-579.3" font-family="Times,serif" font-size="14.00">add_identity()</text>
<text text-anchor="start" x="8" y="-564.3" font-family="Times,serif" font-size="14.00">del_identity()</text>
<text text-anchor="start" x="8" y="-549.3" font-family="Times,serif" font-size="14.00">exists()</text>
<text text-anchor="start" x="8" y="-534.3" font-family="Times,serif" font-size="14.00">get_identity()</text>
<text text-anchor="start" x="8" y="-519.3" font-family="Times,serif" font-size="14.00">get_identity_from_emailadr()</text>
<text text-anchor="start" x="8" y="-504.3" font-family="Times,serif" font-size="14.00">init()</text>
<text text-anchor="start" x="8" y="-489.3" font-family="Times,serif" font-size="14.00">list_identities()</text>
<text text-anchor="start" x="8" y="-474.3" font-family="Times,serif" font-size="14.00">list_identity_names()</text>
<text text-anchor="start" x="8" y="-459.3" font-family="Times,serif" font-size="14.00">make_header()</text>
<text text-anchor="start" x="8" y="-444.3" font-family="Times,serif" font-size="14.00">mod_identity()</text>
<text text-anchor="start" x="8" y="-429.3" font-family="Times,serif" font-size="14.00">process_incoming()</text>
<text text-anchor="start" x="8" y="-414.3" font-family="Times,serif" font-size="14.00">process_outgoing()</text>
<text text-anchor="start" x="8" y="-399.3" font-family="Times,serif" font-size="14.00">remove()</text>
</g>
<!-- 1 -->
<g id="node2" class="node"><title>1</title>
<polygon fill="none" stroke="black" points="40,-105.5 40,-189.5 153,-189.5 153,-105.5 40,-105.5"/>
<text text-anchor="middle" x="96.5" y="-174.3" font-family="Times,serif" font-size="14.00">AccountConfig</text>
<polyline fill="none" stroke="black" points="40,-166.5 153,-166.5 "/>
<text text-anchor="start" x="48" y="-151.3" font-family="Times,serif" font-size="14.00">version : property</text>
<text text-anchor="start" x="48" y="-136.3" font-family="Times,serif" font-size="14.00">version : unicode</text>
<polyline fill="none" stroke="black" points="40,-128.5 153,-128.5 "/>
<text text-anchor="middle" x="96.5" y="-113.3" font-family="Times,serif" font-size="14.00"> </text>
</g>
<!-- 1&#45;&gt;0 -->
<g id="edge6" class="edge"><title>1&#45;&gt;0</title>
<path fill="none" stroke="black" d="M95.7309,-189.594C94.8782,-235.152 93.4551,-311.184 92.1841,-379.094"/>
<polygon fill="black" stroke="black" points="92.1816,-379.232 96.0686,-385.306 91.9569,-391.23 88.07,-385.156 92.1816,-379.232"/>
<text text-anchor="middle" x="111" y="-316.8" font-family="Times,serif" font-size="14.00" fill="green">config</text>
</g>
<!-- 20 -->
<g id="node21" class="node"><title>20</title>
<polygon fill="none" stroke="black" points="197,-473.5 197,-573.5 322,-573.5 322,-473.5 197,-473.5"/>
<text text-anchor="middle" x="259.5" y="-558.3" font-family="Times,serif" font-size="14.00">PersistentAttrMixin</text>
<polyline fill="none" stroke="black" points="197,-550.5 322,-550.5 "/>
<polyline fill="none" stroke="black" points="197,-526.5 322,-526.5 "/>
<text text-anchor="start" x="205" y="-511.3" font-family="Times,serif" font-size="14.00">atomic_change()</text>
<text text-anchor="start" x="205" y="-496.3" font-family="Times,serif" font-size="14.00">exists()</text>
<text text-anchor="start" x="205" y="-481.3" font-family="Times,serif" font-size="14.00">has_changed()</text>
</g>
<!-- 1&#45;&gt;20 -->
<g id="edge1" class="edge"><title>1&#45;&gt;20</title>
<path fill="none" stroke="black" d="M116.213,-189.871C135.019,-229.666 163.898,-291.63 187.5,-346 204.424,-384.986 222.487,-429.276 236.288,-463.736"/>
<polygon fill="none" stroke="black" points="233.102,-465.195 240.063,-473.182 239.602,-462.597 233.102,-465.195"/>
</g>
<!-- 2 -->
<g id="node3" class="node"><title>2</title>
<polygon fill="none" stroke="black" points="521,-488.5 521,-558.5 638,-558.5 638,-488.5 521,-488.5"/>
<text text-anchor="middle" x="579.5" y="-543.3" font-family="Times,serif" font-size="14.00" fill="red">AccountException</text>
<polyline fill="none" stroke="black" points="521,-535.5 638,-535.5 "/>
<polyline fill="none" stroke="black" points="521,-511.5 638,-511.5 "/>
<text text-anchor="middle" x="579.5" y="-496.3" font-family="Times,serif" font-size="14.00" fill="red"> </text>
</g>
<!-- 3 -->
<g id="node4" class="node"><title>3</title>
<polygon fill="none" stroke="black" points="672.5,-346.5 672.5,-700.5 828.5,-700.5 828.5,-346.5 672.5,-346.5"/>
<text text-anchor="middle" x="750.5" y="-685.3" font-family="Times,serif" font-size="14.00">BinGPG</text>
<polyline fill="none" stroke="black" points="672.5,-677.5 828.5,-677.5 "/>
<text text-anchor="start" x="680.5" y="-662.3" font-family="Times,serif" font-size="14.00">InvocationFailure</text>
<text text-anchor="start" x="680.5" y="-647.3" font-family="Times,serif" font-size="14.00">gpgpath : NoneType</text>
<text text-anchor="start" x="680.5" y="-632.3" font-family="Times,serif" font-size="14.00">homedir : NoneType</text>
<polyline fill="none" stroke="black" points="672.5,-624.5 828.5,-624.5 "/>
<text text-anchor="start" x="680.5" y="-609.3" font-family="Times,serif" font-size="14.00">decrypt()</text>
<text text-anchor="start" x="680.5" y="-594.3" font-family="Times,serif" font-size="14.00">encrypt()</text>
<text text-anchor="start" x="680.5" y="-579.3" font-family="Times,serif" font-size="14.00">gen_secret_key()</text>
<text text-anchor="start" x="680.5" y="-564.3" font-family="Times,serif" font-size="14.00">get_public_keydata()</text>
<text text-anchor="start" x="680.5" y="-549.3" font-family="Times,serif" font-size="14.00">get_secret_keydata()</text>
<text text-anchor="start" x="680.5" y="-534.3" font-family="Times,serif" font-size="14.00">get_version()</text>
<text text-anchor="start" x="680.5" y="-519.3" font-family="Times,serif" font-size="14.00">import_keydata()</text>
<text text-anchor="start" x="680.5" y="-504.3" font-family="Times,serif" font-size="14.00">isgpg2()</text>
<text text-anchor="start" x="680.5" y="-489.3" font-family="Times,serif" font-size="14.00">killagent()</text>
<text text-anchor="start" x="680.5" y="-474.3" font-family="Times,serif" font-size="14.00">list_packets()</text>
<text text-anchor="start" x="680.5" y="-459.3" font-family="Times,serif" font-size="14.00">list_public_key_packets()</text>
<text text-anchor="start" x="680.5" y="-444.3" font-family="Times,serif" font-size="14.00">list_public_keyinfos()</text>
<text text-anchor="start" x="680.5" y="-429.3" font-family="Times,serif" font-size="14.00">list_secret_key_packets()</text>
<text text-anchor="start" x="680.5" y="-414.3" font-family="Times,serif" font-size="14.00">list_secret_keyinfos()</text>
<text text-anchor="start" x="680.5" y="-399.3" font-family="Times,serif" font-size="14.00">sign()</text>
<text text-anchor="start" x="680.5" y="-384.3" font-family="Times,serif" font-size="14.00">supports_eddsa()</text>
<text text-anchor="start" x="680.5" y="-369.3" font-family="Times,serif" font-size="14.00">temp_written_file()</text>
<text text-anchor="start" x="680.5" y="-354.3" font-family="Times,serif" font-size="14.00">verify()</text>
</g>
<!-- 4 -->
<g id="node5" class="node"><title>4</title>
<polygon fill="none" stroke="black" points="835.5,-68 835.5,-227 943.5,-227 943.5,-68 835.5,-68"/>
<text text-anchor="middle" x="889.5" y="-211.8" font-family="Times,serif" font-size="14.00">Block</text>
<polyline fill="none" stroke="black" points="835.5,-204 943.5,-204 "/>
<text text-anchor="start" x="843.5" y="-188.8" font-family="Times,serif" font-size="14.00">args</text>
<text text-anchor="start" x="843.5" y="-173.8" font-family="Times,serif" font-size="14.00">cid</text>
<text text-anchor="start" x="843.5" y="-158.8" font-family="Times,serif" font-size="14.00">parent</text>
<text text-anchor="start" x="843.5" y="-143.8" font-family="Times,serif" font-size="14.00">parent_cid</text>
<text text-anchor="start" x="843.5" y="-128.8" font-family="Times,serif" font-size="14.00">timestamp</text>
<text text-anchor="start" x="843.5" y="-113.8" font-family="Times,serif" font-size="14.00">type</text>
<polyline fill="none" stroke="black" points="835.5,-106 943.5,-106 "/>
<text text-anchor="start" x="843.5" y="-90.8" font-family="Times,serif" font-size="14.00">contains_cid()</text>
<text text-anchor="start" x="843.5" y="-75.8" font-family="Times,serif" font-size="14.00">get_last_parent()</text>
</g>
<!-- 5 -->
<g id="node6" class="node"><title>5</title>
<polygon fill="none" stroke="black" points="962,-105 962,-190 1051,-190 1051,-105 962,-105"/>
<text text-anchor="middle" x="1006.5" y="-174.8" font-family="Times,serif" font-size="14.00">BlockService</text>
<polyline fill="none" stroke="black" points="962,-167 1051,-167 "/>
<polyline fill="none" stroke="black" points="962,-143 1051,-143 "/>
<text text-anchor="start" x="970" y="-127.8" font-family="Times,serif" font-size="14.00">get_block()</text>
<text text-anchor="start" x="970" y="-112.8" font-family="Times,serif" font-size="14.00">store_block()</text>
</g>
<!-- 6 -->
<g id="node7" class="node"><title>6</title>
<polygon fill="none" stroke="black" points="1069,-53 1069,-242 1216,-242 1216,-53 1069,-53"/>
<text text-anchor="middle" x="1142.5" y="-226.8" font-family="Times,serif" font-size="14.00">ClaimChain</text>
<polyline fill="none" stroke="black" points="1069,-219 1216,-219 "/>
<text text-anchor="start" x="1077" y="-203.8" font-family="Times,serif" font-size="14.00">ident</text>
<polyline fill="none" stroke="black" points="1069,-196 1216,-196 "/>
<text text-anchor="start" x="1077" y="-180.8" font-family="Times,serif" font-size="14.00">add_genesis()</text>
<text text-anchor="start" x="1077" y="-165.8" font-family="Times,serif" font-size="14.00">add_oob_verify()</text>
<text text-anchor="start" x="1077" y="-150.8" font-family="Times,serif" font-size="14.00">append_block()</text>
<text text-anchor="start" x="1077" y="-135.8" font-family="Times,serif" font-size="14.00">dump()</text>
<text text-anchor="start" x="1077" y="-120.8" font-family="Times,serif" font-size="14.00">get_genesis_block()</text>
<text text-anchor="start" x="1077" y="-105.8" font-family="Times,serif" font-size="14.00">get_head_block()</text>
<text text-anchor="start" x="1077" y="-90.8" font-family="Times,serif" font-size="14.00">is_oob_verified_block()</text>
<text text-anchor="start" x="1077" y="-75.8" font-family="Times,serif" font-size="14.00">iter_blocks()</text>
<text text-anchor="start" x="1077" y="-60.8" font-family="Times,serif" font-size="14.00">num_blocks()</text>
</g>
<!-- 7 -->
<g id="node8" class="node"><title>7</title>
<polygon fill="none" stroke="black" points="1234.5,-105 1234.5,-190 1332.5,-190 1332.5,-105 1234.5,-105"/>
<text text-anchor="middle" x="1283.5" y="-174.8" font-family="Times,serif" font-size="14.00">HeadTracker</text>
<polyline fill="none" stroke="black" points="1234.5,-167 1332.5,-167 "/>
<polyline fill="none" stroke="black" points="1234.5,-143 1332.5,-143 "/>
<text text-anchor="start" x="1242.5" y="-127.8" font-family="Times,serif" font-size="14.00">get_head_cid()</text>
<text text-anchor="start" x="1242.5" y="-112.8" font-family="Times,serif" font-size="14.00">upsert()</text>
</g>
<!-- 8 -->
<g id="node9" class="node"><title>8</title>
<polygon fill="none" stroke="black" points="340,-421.5 340,-625.5 467,-625.5 467,-421.5 340,-421.5"/>
<text text-anchor="middle" x="403.5" y="-610.3" font-family="Times,serif" font-size="14.00">Identity</text>
<polyline fill="none" stroke="black" points="340,-602.5 467,-602.5 "/>
<text text-anchor="start" x="348" y="-587.3" font-family="Times,serif" font-size="14.00">config</text>
<text text-anchor="start" x="348" y="-572.3" font-family="Times,serif" font-size="14.00">dir</text>
<polyline fill="none" stroke="black" points="340,-564.5 467,-564.5 "/>
<text text-anchor="start" x="348" y="-549.3" font-family="Times,serif" font-size="14.00">bingpg()</text>
<text text-anchor="start" x="348" y="-534.3" font-family="Times,serif" font-size="14.00">create()</text>
<text text-anchor="start" x="348" y="-519.3" font-family="Times,serif" font-size="14.00">delete()</text>
<text text-anchor="start" x="348" y="-504.3" font-family="Times,serif" font-size="14.00">exists()</text>
<text text-anchor="start" x="348" y="-489.3" font-family="Times,serif" font-size="14.00">export_public_key()</text>
<text text-anchor="start" x="348" y="-474.3" font-family="Times,serif" font-size="14.00">export_secret_key()</text>
<text text-anchor="start" x="348" y="-459.3" font-family="Times,serif" font-size="14.00">get_peerinfo()</text>
<text text-anchor="start" x="348" y="-444.3" font-family="Times,serif" font-size="14.00">make_ac_header()</text>
<text text-anchor="start" x="348" y="-429.3" font-family="Times,serif" font-size="14.00">modify()</text>
</g>
<!-- 9 -->
<g id="node10" class="node"><title>9</title>
<polygon fill="none" stroke="black" points="183,-0.5 183,-294.5 398,-294.5 398,-0.5 183,-0.5"/>
<text text-anchor="middle" x="290.5" y="-279.3" font-family="Times,serif" font-size="14.00">IdentityConfig</text>
<polyline fill="none" stroke="black" points="183,-271.5 398,-271.5 "/>
<text text-anchor="start" x="191" y="-256.3" font-family="Times,serif" font-size="14.00">email_regex : NoneType</text>
<text text-anchor="start" x="191" y="-241.3" font-family="Times,serif" font-size="14.00">email_regex : property</text>
<text text-anchor="start" x="191" y="-226.3" font-family="Times,serif" font-size="14.00">gpgbin</text>
<text text-anchor="start" x="191" y="-211.3" font-family="Times,serif" font-size="14.00">gpgbin : property</text>
<text text-anchor="start" x="191" y="-196.3" font-family="Times,serif" font-size="14.00">gpgmode</text>
<text text-anchor="start" x="191" y="-181.3" font-family="Times,serif" font-size="14.00">gpgmode : property</text>
<text text-anchor="start" x="191" y="-166.3" font-family="Times,serif" font-size="14.00">name</text>
<text text-anchor="start" x="191" y="-151.3" font-family="Times,serif" font-size="14.00">name : property</text>
<text text-anchor="start" x="191" y="-136.3" font-family="Times,serif" font-size="14.00">own_keyhandle</text>
<text text-anchor="start" x="191" y="-121.3" font-family="Times,serif" font-size="14.00">own_keyhandle : property</text>
<text text-anchor="start" x="191" y="-106.3" font-family="Times,serif" font-size="14.00">peers : dict</text>
<text text-anchor="start" x="191" y="-91.3" font-family="Times,serif" font-size="14.00">peers : property</text>
<text text-anchor="start" x="191" y="-76.3" font-family="Times,serif" font-size="14.00">prefer_encrypt : property</text>
<text text-anchor="start" x="191" y="-61.3" font-family="Times,serif" font-size="14.00">prefer_encrypt : unicode, NoneType</text>
<text text-anchor="start" x="191" y="-46.3" font-family="Times,serif" font-size="14.00">uuid</text>
<text text-anchor="start" x="191" y="-31.3" font-family="Times,serif" font-size="14.00">uuid : property</text>
<polyline fill="none" stroke="black" points="183,-23.5 398,-23.5 "/>
<text text-anchor="start" x="191" y="-8.3" font-family="Times,serif" font-size="14.00">exists()</text>
</g>
<!-- 9&#45;&gt;8 -->
<g id="edge7" class="edge"><title>9&#45;&gt;8</title>
<path fill="none" stroke="black" d="M334.674,-294.705C346.236,-332.973 358.522,-373.636 369.465,-409.855"/>
<polygon fill="black" stroke="black" points="369.498,-409.962 375.062,-414.549 372.969,-421.449 367.404,-416.862 369.498,-409.962"/>
<text text-anchor="middle" x="362" y="-316.8" font-family="Times,serif" font-size="14.00" fill="green">config</text>
</g>
<!-- 9&#45;&gt;20 -->
<g id="edge2" class="edge"><title>9&#45;&gt;20</title>
<path fill="none" stroke="black" d="M278.381,-294.705C273.513,-353.437 268.177,-417.812 264.424,-463.099"/>
<polygon fill="none" stroke="black" points="260.914,-463.068 263.576,-473.323 267.89,-463.646 260.914,-463.068"/>
</g>
<!-- 10 -->
<g id="node11" class="node"><title>10</title>
<polygon fill="none" stroke="black" points="1350.5,-83 1350.5,-212 1446.5,-212 1446.5,-83 1350.5,-83"/>
<text text-anchor="middle" x="1398.5" y="-196.8" font-family="Times,serif" font-size="14.00">IdentityInfo</text>
<polyline fill="none" stroke="black" points="1350.5,-189 1446.5,-189 "/>
<text text-anchor="start" x="1358.5" y="-173.8" font-family="Times,serif" font-size="14.00">email_regex</text>
<text text-anchor="start" x="1358.5" y="-158.8" font-family="Times,serif" font-size="14.00">keyhandle</text>
<text text-anchor="start" x="1358.5" y="-143.8" font-family="Times,serif" font-size="14.00">name</text>
<text text-anchor="start" x="1358.5" y="-128.8" font-family="Times,serif" font-size="14.00">prefer_encrypt</text>
<text text-anchor="start" x="1358.5" y="-113.8" font-family="Times,serif" font-size="14.00">uuid</text>
<polyline fill="none" stroke="black" points="1350.5,-106 1446.5,-106 "/>
<text text-anchor="start" x="1358.5" y="-90.8" font-family="Times,serif" font-size="14.00">peers()</text>
</g>
<!-- 11 -->
<g id="node12" class="node"><title>11</title>
<polygon fill="none" stroke="black" points="422,-113 422,-182 535,-182 535,-113 422,-113"/>
<text text-anchor="middle" x="478.5" y="-166.8" font-family="Times,serif" font-size="14.00" fill="red">IdentityNotFound</text>
<polyline fill="none" stroke="black" points="422,-159 535,-159 "/>
<text text-anchor="start" x="430" y="-143.8" font-family="Times,serif" font-size="14.00" fill="red">msg</text>
<polyline fill="none" stroke="black" points="422,-136 535,-136 "/>
<text text-anchor="middle" x="478.5" y="-120.8" font-family="Times,serif" font-size="14.00" fill="red"> </text>
</g>
<!-- 11&#45;&gt;2 -->
<g id="edge3" class="edge"><title>11&#45;&gt;2</title>
<path fill="none" stroke="black" d="M487.552,-182.019C505.856,-249.797 547.255,-403.099 567.668,-478.685"/>
<polygon fill="none" stroke="black" points="564.3,-479.64 570.286,-488.381 571.058,-477.815 564.3,-479.64"/>
</g>
<!-- 12 -->
<g id="node13" class="node"><title>12</title>
<polygon fill="none" stroke="black" points="683.5,-83 683.5,-212 817.5,-212 817.5,-83 683.5,-83"/>
<text text-anchor="middle" x="750.5" y="-196.8" font-family="Times,serif" font-size="14.00" fill="red">InvocationFailure</text>
<polyline fill="none" stroke="black" points="683.5,-189 817.5,-189 "/>
<text text-anchor="start" x="691.5" y="-173.8" font-family="Times,serif" font-size="14.00" fill="red">cmd</text>
<text text-anchor="start" x="691.5" y="-158.8" font-family="Times,serif" font-size="14.00" fill="red">err</text>
<text text-anchor="start" x="691.5" y="-143.8" font-family="Times,serif" font-size="14.00" fill="red">extrainfo : NoneType</text>
<text text-anchor="start" x="691.5" y="-128.8" font-family="Times,serif" font-size="14.00" fill="red">out</text>
<text text-anchor="start" x="691.5" y="-113.8" font-family="Times,serif" font-size="14.00" fill="red">ret</text>
<polyline fill="none" stroke="black" points="683.5,-106 817.5,-106 "/>
<text text-anchor="middle" x="750.5" y="-90.8" font-family="Times,serif" font-size="14.00" fill="red"> </text>
</g>
<!-- 12&#45;&gt;3 -->
<g id="edge8" class="edge"><title>12&#45;&gt;3</title>
<path fill="none" stroke="black" d="M750.5,-212.368C750.5,-246.385 750.5,-290.189 750.5,-334.095"/>
<polygon fill="black" stroke="black" points="750.5,-334.167 754.5,-340.167 750.5,-346.167 746.5,-340.167 750.5,-334.167"/>
<text text-anchor="middle" x="799" y="-316.8" font-family="Times,serif" font-size="14.00" fill="green">InvocationFailure</text>
</g>
<!-- 13 -->
<g id="node14" class="node"><title>13</title>
<polygon fill="none" stroke="black" points="1465,-83 1465,-212 1550,-212 1550,-83 1465,-83"/>
<text text-anchor="middle" x="1507.5" y="-196.8" font-family="Times,serif" font-size="14.00">KeyInfo</text>
<polyline fill="none" stroke="black" points="1465,-189 1550,-189 "/>
<text text-anchor="start" x="1473" y="-173.8" font-family="Times,serif" font-size="14.00">bits : int</text>
<text text-anchor="start" x="1473" y="-158.8" font-family="Times,serif" font-size="14.00">date_created</text>
<text text-anchor="start" x="1473" y="-143.8" font-family="Times,serif" font-size="14.00">id</text>
<text text-anchor="start" x="1473" y="-128.8" font-family="Times,serif" font-size="14.00">type</text>
<text text-anchor="start" x="1473" y="-113.8" font-family="Times,serif" font-size="14.00">uids</text>
<polyline fill="none" stroke="black" points="1465,-106 1550,-106 "/>
<text text-anchor="start" x="1473" y="-90.8" font-family="Times,serif" font-size="14.00">match()</text>
</g>
<!-- 14 -->
<g id="node15" class="node"><title>14</title>
<polygon fill="none" stroke="black" points="1616.5,-488.5 1616.5,-558.5 1710.5,-558.5 1710.5,-488.5 1616.5,-488.5"/>
<text text-anchor="middle" x="1663.5" y="-543.3" font-family="Times,serif" font-size="14.00">MyCommand</text>
<polyline fill="none" stroke="black" points="1616.5,-535.5 1710.5,-535.5 "/>
<polyline fill="none" stroke="black" points="1616.5,-511.5 1710.5,-511.5 "/>
<text text-anchor="start" x="1624.5" y="-496.3" font-family="Times,serif" font-size="14.00">invoke()</text>
</g>
<!-- 15 -->
<g id="node16" class="node"><title>15</title>
<polygon fill="none" stroke="black" points="1568.5,-113 1568.5,-182 1758.5,-182 1758.5,-113 1568.5,-113"/>
<text text-anchor="middle" x="1663.5" y="-166.8" font-family="Times,serif" font-size="14.00">MyCommandUnknownOptions</text>
<polyline fill="none" stroke="black" points="1568.5,-159 1758.5,-159 "/>
<text text-anchor="start" x="1576.5" y="-143.8" font-family="Times,serif" font-size="14.00">ignore_unknown_options : bool</text>
<polyline fill="none" stroke="black" points="1568.5,-136 1758.5,-136 "/>
<text text-anchor="middle" x="1663.5" y="-120.8" font-family="Times,serif" font-size="14.00"> </text>
</g>
<!-- 15&#45;&gt;14 -->
<g id="edge4" class="edge"><title>15&#45;&gt;14</title>
<path fill="none" stroke="black" d="M1663.5,-182.019C1663.5,-249.659 1663.5,-402.473 1663.5,-478.221"/>
<polygon fill="none" stroke="black" points="1660,-478.381 1663.5,-488.381 1667,-478.382 1660,-478.381"/>
</g>
<!-- 16 -->
<g id="node17" class="node"><title>16</title>
<polygon fill="none" stroke="black" points="1777,-105 1777,-190 1886,-190 1886,-105 1777,-105"/>
<text text-anchor="middle" x="1831.5" y="-174.8" font-family="Times,serif" font-size="14.00">MyGroup</text>
<polyline fill="none" stroke="black" points="1777,-167 1886,-167 "/>
<polyline fill="none" stroke="black" points="1777,-143 1886,-143 "/>
<text text-anchor="start" x="1785" y="-127.8" font-family="Times,serif" font-size="14.00">add_command()</text>
<text text-anchor="start" x="1785" y="-112.8" font-family="Times,serif" font-size="14.00">list_commands()</text>
</g>
<!-- 17 -->
<g id="node18" class="node"><title>17</title>
<polygon fill="none" stroke="black" points="553.5,-113 553.5,-182 645.5,-182 645.5,-113 553.5,-113"/>
<text text-anchor="middle" x="599.5" y="-166.8" font-family="Times,serif" font-size="14.00" fill="red">NotInitialized</text>
<polyline fill="none" stroke="black" points="553.5,-159 645.5,-159 "/>
<text text-anchor="start" x="561.5" y="-143.8" font-family="Times,serif" font-size="14.00" fill="red">msg</text>
<polyline fill="none" stroke="black" points="553.5,-136 645.5,-136 "/>
<text text-anchor="middle" x="599.5" y="-120.8" font-family="Times,serif" font-size="14.00" fill="red"> </text>
</g>
<!-- 17&#45;&gt;2 -->
<g id="edge5" class="edge"><title>17&#45;&gt;2</title>
<path fill="none" stroke="black" d="M597.708,-182.019C594.09,-249.659 585.919,-402.473 581.868,-478.221"/>
<polygon fill="none" stroke="black" points="578.364,-478.209 581.325,-488.381 585.354,-478.583 578.364,-478.209"/>
</g>
<!-- 18 -->
<g id="node19" class="node"><title>18</title>
<polygon fill="none" stroke="black" points="1904.5,-23 1904.5,-272 2040.5,-272 2040.5,-23 1904.5,-23"/>
<text text-anchor="middle" x="1972.5" y="-256.8" font-family="Times,serif" font-size="14.00">PGPyCrypto</text>
<polyline fill="none" stroke="black" points="1904.5,-249 2040.5,-249 "/>
<text text-anchor="start" x="1912.5" y="-233.8" font-family="Times,serif" font-size="14.00">memkr</text>
<text text-anchor="start" x="1912.5" y="-218.8" font-family="Times,serif" font-size="14.00">pgpydir : NoneType</text>
<polyline fill="none" stroke="black" points="1904.5,-211 2040.5,-211 "/>
<text text-anchor="start" x="1912.5" y="-195.8" font-family="Times,serif" font-size="14.00">decrypt()</text>
<text text-anchor="start" x="1912.5" y="-180.8" font-family="Times,serif" font-size="14.00">encrypt()</text>
<text text-anchor="start" x="1912.5" y="-165.8" font-family="Times,serif" font-size="14.00">gen_secret_key()</text>
<text text-anchor="start" x="1912.5" y="-150.8" font-family="Times,serif" font-size="14.00">get_public_keydata()</text>
<text text-anchor="start" x="1912.5" y="-135.8" font-family="Times,serif" font-size="14.00">get_secret_keydata()</text>
<text text-anchor="start" x="1912.5" y="-120.8" font-family="Times,serif" font-size="14.00">import_keydata()</text>
<text text-anchor="start" x="1912.5" y="-105.8" font-family="Times,serif" font-size="14.00">list_packets()</text>
<text text-anchor="start" x="1912.5" y="-90.8" font-family="Times,serif" font-size="14.00">list_public_keyinfos()</text>
<text text-anchor="start" x="1912.5" y="-75.8" font-family="Times,serif" font-size="14.00">list_secret_keyinfos()</text>
<text text-anchor="start" x="1912.5" y="-60.8" font-family="Times,serif" font-size="14.00">sign()</text>
<text text-anchor="start" x="1912.5" y="-45.8" font-family="Times,serif" font-size="14.00">supports_eddsa()</text>
<text text-anchor="start" x="1912.5" y="-30.8" font-family="Times,serif" font-size="14.00">verify()</text>
</g>
<!-- 19 -->
<g id="node20" class="node"><title>19</title>
<polygon fill="none" stroke="black" points="2058.5,-98 2058.5,-197 2130.5,-197 2130.5,-98 2058.5,-98"/>
<text text-anchor="middle" x="2094.5" y="-181.8" font-family="Times,serif" font-size="14.00">PeerInfo</text>
<polyline fill="none" stroke="black" points="2058.5,-174 2130.5,-174 "/>
<text text-anchor="start" x="2066.5" y="-158.8" font-family="Times,serif" font-size="14.00">date</text>
<text text-anchor="start" x="2066.5" y="-143.8" font-family="Times,serif" font-size="14.00">identity</text>
<text text-anchor="start" x="2066.5" y="-128.8" font-family="Times,serif" font-size="14.00">keyhandle</text>
<polyline fill="none" stroke="black" points="2058.5,-121 2130.5,-121 "/>
<text text-anchor="middle" x="2094.5" y="-105.8" font-family="Times,serif" font-size="14.00"> </text>
</g>
<!-- 21 -->
<g id="node22" class="node"><title>21</title>
<polygon fill="none" stroke="black" points="2149,-105.5 2149,-189.5 2226,-189.5 2226,-105.5 2149,-105.5"/>
<text text-anchor="middle" x="2187.5" y="-174.3" font-family="Times,serif" font-size="14.00">SimpleLog</text>
<polyline fill="none" stroke="black" points="2149,-166.5 2226,-166.5 "/>
<text text-anchor="start" x="2157" y="-151.3" font-family="Times,serif" font-size="14.00">indent</text>
<text text-anchor="start" x="2157" y="-136.3" font-family="Times,serif" font-size="14.00">logs : list</text>
<polyline fill="none" stroke="black" points="2149,-128.5 2226,-128.5 "/>
<text text-anchor="start" x="2157" y="-113.3" font-family="Times,serif" font-size="14.00">s()</text>
</g>
</g>
</svg>
