<?xml version="1.0" encoding="UTF-8" standalone="no"?>
<!DOCTYPE svg PUBLIC "-//W3C//DTD SVG 1.1//EN"
 "http://www.w3.org/Graphics/SVG/1.1/DTD/svg11.dtd">
<!-- Generated by graphviz version 2.38.0 (20140413.2041)
 -->
<!-- Title: packages_pyautocrypt Pages: 1 -->
<svg width="4843pt" height="44pt"
 viewBox="0.00 0.00 4843.00 44.00" xmlns="http://www.w3.org/2000/svg" xmlns:xlink="http://www.w3.org/1999/xlink">
<g id="graph0" class="graph" transform="scale(1 1) rotate(0) translate(4 40)">
<title>packages_pyautocrypt</title>
<polygon fill="white" stroke="none" points="-4,4 -4,-40 4839,-40 4839,4 -4,4"/>
<!-- 0 -->
<g id="node1" class="node"><title>0</title>
<polygon fill="none" stroke="black" points="466,-36 0,-36 0,-0 466,-0 466,-36"/>
<text text-anchor="middle" x="233" y="-14.3" font-family="Times,serif" font-size="14.00">/home/user/_my/code/mailencrypt&#45;related/py&#45;autocrypt/core/autocrypt/__init__.py</text>
</g>
<!-- 1 -->
<g id="node2" class="node"><title>1</title>
<polygon fill="none" stroke="black" points="947.5,-36 484.5,-36 484.5,-0 947.5,-0 947.5,-36"/>
<text text-anchor="middle" x="716" y="-14.3" font-family="Times,serif" font-size="14.00">/home/user/_my/code/mailencrypt&#45;related/py&#45;autocrypt/core/autocrypt/account.py</text>
</g>
<!-- 2 -->
<g id="node3" class="node"><title>2</title>
<polygon fill="none" stroke="black" points="1424,-36 966,-36 966,-0 1424,-0 1424,-36"/>
<text text-anchor="middle" x="1195" y="-14.3" font-family="Times,serif" font-size="14.00">/home/user/_my/code/mailencrypt&#45;related/py&#45;autocrypt/core/autocrypt/bingpg.py</text>
</g>
<!-- 3 -->
<g id="node4" class="node"><title>3</title>
<polygon fill="none" stroke="black" points="1880,-36 1442,-36 1442,-0 1880,-0 1880,-36"/>
<text text-anchor="middle" x="1661" y="-14.3" font-family="Times,serif" font-size="14.00">/home/user/_my/code/mailencrypt&#45;related/py&#45;autocrypt/core/autocrypt/bot.py</text>
</g>
<!-- 4 -->
<g id="node5" class="node"><title>4</title>
<polygon fill="none" stroke="black" points="2379.5,-36 1898.5,-36 1898.5,-0 2379.5,-0 2379.5,-36"/>
<text text-anchor="middle" x="2139" y="-14.3" font-family="Times,serif" font-size="14.00">/home/user/_my/code/mailencrypt&#45;related/py&#45;autocrypt/core/autocrypt/claimchain.py</text>
</g>
<!-- 5 -->
<g id="node6" class="node"><title>5</title>
<polygon fill="none" stroke="black" points="2862.5,-36 2397.5,-36 2397.5,-0 2862.5,-0 2862.5,-36"/>
<text text-anchor="middle" x="2630" y="-14.3" font-family="Times,serif" font-size="14.00">/home/user/_my/code/mailencrypt&#45;related/py&#45;autocrypt/core/autocrypt/cmdline.py</text>
</g>
<!-- 6 -->
<g id="node7" class="node"><title>6</title>
<polygon fill="none" stroke="black" points="3375.5,-36 2880.5,-36 2880.5,-0 3375.5,-0 3375.5,-36"/>
<text text-anchor="middle" x="3128" y="-14.3" font-family="Times,serif" font-size="14.00">/home/user/_my/code/mailencrypt&#45;related/py&#45;autocrypt/core/autocrypt/cmdline_utils.py</text>
</g>
<!-- 7 -->
<g id="node8" class="node"><title>7</title>
<polygon fill="none" stroke="black" points="3864.5,-36 3393.5,-36 3393.5,-0 3864.5,-0 3864.5,-36"/>
<text text-anchor="middle" x="3629" y="-14.3" font-family="Times,serif" font-size="14.00">/home/user/_my/code/mailencrypt&#45;related/py&#45;autocrypt/core/autocrypt/constants.py</text>
</g>
<!-- 8 -->
<g id="node9" class="node"><title>8</title>
<polygon fill="none" stroke="black" points="4335.5,-36 3882.5,-36 3882.5,-0 4335.5,-0 4335.5,-36"/>
<text text-anchor="middle" x="4109" y="-14.3" font-family="Times,serif" font-size="14.00">/home/user/_my/code/mailencrypt&#45;related/py&#45;autocrypt/core/autocrypt/mime.py</text>
</g>
<!-- 9 -->
<g id="node10" class="node"><title>9</title>
<polygon fill="none" stroke="black" points="4835,-36 4353,-36 4353,-0 4835,-0 4835,-36"/>
<text text-anchor="middle" x="4594" y="-14.3" font-family="Times,serif" font-size="14.00">/home/user/_my/code/mailencrypt&#45;related/py&#45;autocrypt/core/autocrypt/pgpycrypto.py</text>
</g>
</g>
</svg>
